<svg width="47" height="53" viewBox="0 0 47 53" fill="none" xmlns="http://www.w3.org/2000/svg">
<path fill-rule="evenodd" clip-rule="evenodd" d="M19.0516 2.10911L4.44844 10.6191C1.69574 12.2232 0 15.1878 0 18.396V35.416C0 38.6242 1.69574 41.5888 4.44844 43.1929L19.0516 51.7029C21.8043 53.307 25.1957 53.307 27.9484 51.7029L42.5516 43.1929C45.3043 41.5888 47 38.6242 47 35.416V18.396C47 15.1878 45.3043 12.2232 42.5516 10.6191L27.9484 2.10911C25.1957 0.504972 21.8043 0.504972 19.0516 2.10911Z" fill="#E5E5E5"/>
<path d="M23 36.906C28.5228 36.906 33 32.4289 33 26.906C33 21.3832 28.5228 16.906 23 16.906C17.4772 16.906 13 21.3832 13 26.906C13 32.4289 17.4772 36.906 23 36.906Z" stroke="white" stroke-width="2" stroke-linecap="round" stroke-linejoin="round"/>
<path d="M32.75 27.746C29.25 26.816 26.12 26.926 23.81 27.746C21.23 28.666 18.8 30.606 16.37 34.066M19.56 17.656C23.93 23.686 25.58 27.076 27.59 35.376L19.56 17.656ZM30.13 19.996C26.41 24.346 21.19 25.656 13.25 25.846L30.13 19.996Z" stroke="white" stroke-width="2" stroke-linecap="round" stroke-linejoin="round"/>
</svg>
