<svg width="47" height="53" viewBox="0 0 47 53" fill="none" xmlns="http://www.w3.org/2000/svg">
<path fillRule="evenodd" clipRule="evenodd" d="M19.0516 2.10911L4.44844 10.6191C1.69574 12.2232 0 15.1878 0 18.396V35.416C0 38.6242 1.69574 41.5888 4.44844 43.1929L19.0516 51.7029C21.8043 53.307 25.1957 53.307 27.9484 51.7029L42.5516 43.1929C45.3043 41.5888 47 38.6242 47 35.416V18.396C47 15.1878 45.3043 12.2232 42.5516 10.6191L27.9484 2.10911C25.1957 0.504972 21.8043 0.504972 19.0516 2.10911Z" fill="#E5E5E5"/>
<path d="M27 37.9328V34.0628C27.0375 33.586 26.9731 33.1066 26.811 32.6566C26.6489 32.2066 26.3929 31.7962 26.06 31.4528C29.2 31.1028 32.5 29.9128 32.5 24.4528C32.4997 23.0566 31.9627 21.714 31 20.7028C31.4559 19.4813 31.4236 18.1311 30.91 16.9328C30.91 16.9328 29.73 16.5828 27 18.4128C24.708 17.7916 22.292 17.7916 20 18.4128C17.27 16.5828 16.09 16.9328 16.09 16.9328C15.5764 18.1311 15.5441 19.4813 16 20.7028C15.0301 21.7215 14.4925 23.0763 14.5 24.4828C14.5 29.9028 17.8 31.0928 20.94 31.4828C20.611 31.8228 20.3573 32.2282 20.1953 32.6727C20.0334 33.1172 19.9668 33.5909 20 34.0628V37.9328M20 34.9328C15 36.4328 15 32.4328 13 31.9328L20 34.9328Z" stroke="white" strokeWidth="2" strokeLinecap="round" strokeLinejoin="round"/>
</svg>
