<svg width="47" height="53" viewBox="0 0 47 53" fill="none" xmlns="http://www.w3.org/2000/svg">
<path fill-rule="evenodd" clip-rule="evenodd" d="M19.0516 2.10911L4.44844 10.6191C1.69574 12.2232 0 15.1878 0 18.396V35.416C0 38.6242 1.69574 41.5888 4.44844 43.1929L19.0516 51.7029C21.8043 53.307 25.1957 53.307 27.9484 51.7029L42.5516 43.1929C45.3043 41.5888 47 38.6242 47 35.416V18.396C47 15.1878 45.3043 12.2232 42.5516 10.6191L27.9484 2.10911C25.1957 0.504972 21.8043 0.504972 19.0516 2.10911Z" fill="#E5E5E5"/>
<path d="M28 16.906H18C15.2386 16.906 13 19.1446 13 21.906V31.906C13 34.6674 15.2386 36.906 18 36.906H28C30.7614 36.906 33 34.6674 33 31.906V21.906C33 19.1446 30.7614 16.906 28 16.906Z" stroke="white" stroke-width="2" stroke-linecap="round" stroke-linejoin="round"/>
<path d="M27 26.276C27.1234 27.1083 26.9813 27.9582 26.5938 28.705C26.2063 29.4518 25.5932 30.0574 24.8416 30.4357C24.0901 30.8139 23.2385 30.9456 22.4078 30.8119C21.5771 30.6783 20.8098 30.2861 20.2149 29.6912C19.6199 29.0962 19.2277 28.3289 19.0941 27.4982C18.9604 26.6676 19.0921 25.8159 19.4703 25.0644C19.8486 24.3129 20.4542 23.6997 21.201 23.3122C21.9478 22.9247 22.7978 22.7826 23.63 22.906C24.4789 23.0319 25.2649 23.4275 25.8717 24.0343C26.4785 24.6412 26.8741 25.4271 27 26.276Z" stroke="white" stroke-width="2" stroke-linecap="round" stroke-linejoin="round"/>
<path d="M28.5 21.406H28.51" stroke="white" stroke-width="2" stroke-linecap="round" stroke-linejoin="round"/>
</svg>
