<svg width="47" height="53" viewBox="0 0 47 53" fill="none" xmlns="http://www.w3.org/2000/svg">
<path fill-rule="evenodd" clip-rule="evenodd" d="M19.0516 2.10911L4.44844 10.6191C1.69574 12.2232 0 15.1878 0 18.396V35.416C0 38.6242 1.69574 41.5888 4.44844 43.1929L19.0516 51.7029C21.8043 53.307 25.1957 53.307 27.9484 51.7029L42.5516 43.1929C45.3043 41.5888 47 38.6242 47 35.416V18.396C47 15.1878 45.3043 12.2232 42.5516 10.6191L27.9484 2.10911C25.1957 0.504972 21.8043 0.504972 19.0516 2.10911Z" fill="#E5E5E5"/>
<path d="M34 17.9161C33.0424 18.5915 31.9821 19.1082 30.86 19.4461C30.2577 18.7536 29.4573 18.2628 28.567 18.04C27.6767 17.8172 26.7395 17.8733 25.8821 18.2005C25.0247 18.5278 24.2884 19.1105 23.773 19.8698C23.2575 20.6291 22.9877 21.5284 23 22.4461V23.4461C21.2426 23.4916 19.5013 23.1019 17.931 22.3115C16.3607 21.5211 15.0103 20.3547 14 18.9161C14 18.9161 10 27.9161 19 31.9161C16.9405 33.314 14.4872 34.015 12 33.9161C21 38.9161 32 33.9161 32 22.4161C31.9991 22.1375 31.9723 21.8597 31.92 21.5861C32.9406 20.5796 33.6608 19.3088 34 17.9161Z" stroke="white" stroke-width="2" stroke-linecap="round" stroke-linejoin="round"/>
</svg>
