<svg width="40" height="40" viewBox="0 0 40 40" fill="none" xmlns="http://www.w3.org/2000/svg">
<rect width="40" height="40" rx="7" fill="#D9D9D9"/>
<rect x="1" y="1" width="38" height="38" rx="6" fill="white"/>
<mask id="mask0_447_107" style="mask-type:alpha" maskUnits="userSpaceOnUse" x="2" y="2" width="36" height="36">
<rect x="2" y="2" width="36" height="36" rx="5" fill="#EFEFEF"/>
</mask>
<g mask="url(#mask0_447_107)">
<rect x="1" y="1" width="38" height="32" fill="#2CEDFA"/>
<g filter="url(#filter0_d_447_107)">
<path d="M31.3595 29.6898C33.6361 30.6747 36.1611 31.2648 38.1315 32.7717C57.1724 47.3338 23.3226 54.6149 17 54.6149C10.3726 54.6149 -7 51.2423 -7 44.6149C-3.69323 -4.04183 14.7882 25.3125 21.8789 19.9358C22.7331 19.2881 23.7238 18.4807 24.6913 18.9421C27.9224 20.4831 25.2622 27.0521 31.3595 29.6898Z" fill="#31DB75"/>
<path d="M37.9796 32.9703C42.7172 36.5935 44.07 39.6916 43.5074 42.2749C42.9382 44.8889 40.3869 47.1179 36.96 48.9332C33.5492 50.7399 29.3424 52.0991 25.588 53.0067C21.8302 53.9151 18.5514 54.3649 17 54.3649C13.7144 54.3649 7.74036 53.5265 2.59161 51.8623C0.016993 51.0301 -2.33382 49.9969 -4.03583 48.7705C-5.73976 47.5427 -6.74635 46.1573 -6.74999 44.6233C-5.92354 32.4716 -4.15105 25.2319 -1.87098 21.1088C-0.733305 19.0515 0.52388 17.7829 1.84119 17.0608C3.15695 16.3397 4.55464 16.1518 5.99594 16.2941C7.44118 16.4368 8.92511 16.911 10.4035 17.5095C11.3702 17.9009 12.3219 18.3399 13.2562 18.7708C13.7555 19.0011 14.2498 19.2291 14.7387 19.4463C16.1307 20.0647 17.4728 20.5923 18.6979 20.791C19.9286 20.9906 21.0705 20.8625 22.03 20.135C22.0657 20.1079 22.1013 20.0808 22.137 20.0536C22.5376 19.7489 22.9398 19.4431 23.3496 19.249C23.7889 19.0409 24.1943 18.982 24.5837 19.1677C25.3056 19.512 25.7129 20.139 26.0025 20.9818C26.2015 21.5611 26.3358 22.21 26.4811 22.912C26.551 23.25 26.6235 23.6003 26.707 23.9611C26.9597 25.0529 27.3077 26.2033 27.9902 27.2509C28.6758 28.3033 29.6913 29.2405 31.2602 29.9192C31.9525 30.2187 32.6787 30.4861 33.3977 30.7508C33.8613 30.9215 34.322 31.0911 34.7685 31.2675C35.9232 31.7236 37.0218 32.2378 37.9796 32.9703Z" stroke="white" stroke-width="0.5"/>
</g>
<path fill-rule="evenodd" clip-rule="evenodd" d="M11.6404 18.6403C12.6907 17.59 14.1151 17 15.6004 17C17.0857 17 18.5101 17.59 19.5604 18.6403C20.6107 19.6905 21.2007 21.115 21.2007 22.6003C21.2007 24.0856 20.6107 25.51 19.5604 26.5603L15.6004 30.5203L11.6404 26.5603C11.1203 26.0403 10.7078 25.4229 10.4263 24.7434C10.1449 24.064 10 23.3357 10 22.6003C10 21.8648 10.1449 21.1366 10.4263 20.4571C10.7078 19.7777 11.1203 19.1603 11.6404 18.6403ZM15.6004 24.2003C16.0248 24.2003 16.4317 24.0317 16.7318 23.7317C17.0318 23.4316 17.2004 23.0246 17.2004 22.6003C17.2004 22.1759 17.0318 21.769 16.7318 21.4689C16.4317 21.1689 16.0248 21.0003 15.6004 21.0003C15.1761 21.0003 14.7691 21.1689 14.469 21.4689C14.169 21.769 14.0004 22.1759 14.0004 22.6003C14.0004 23.0246 14.169 23.4316 14.469 23.7317C14.7691 24.0317 15.1761 24.2003 15.6004 24.2003Z" fill="#CA1010"/>
</g>
<defs>
<filter id="filter0_d_447_107" x="-20" y="3" width="76.8774" height="64.6149" filterUnits="userSpaceOnUse" color-interpolation-filters="sRGB">
<feFlood flood-opacity="0" result="BackgroundImageFix"/>
<feColorMatrix in="SourceAlpha" type="matrix" values="0 0 0 0 0 0 0 0 0 0 0 0 0 0 0 0 0 0 127 0" result="hardAlpha"/>
<feOffset/>
<feGaussianBlur stdDeviation="6.5"/>
<feComposite in2="hardAlpha" operator="out"/>
<feColorMatrix type="matrix" values="0 0 0 0 0 0 0 0 0 0 0 0 0 0 0 0 0 0 0.25 0"/>
<feBlend mode="normal" in2="BackgroundImageFix" result="effect1_dropShadow_447_107"/>
<feBlend mode="normal" in="SourceGraphic" in2="effect1_dropShadow_447_107" result="shape"/>
</filter>
</defs>
</svg>
