<?xml version="1.0" standalone="no"?>
<!DOCTYPE svg PUBLIC "-//W3C//DTD SVG 20010904//EN"
 "http://www.w3.org/TR/2001/REC-SVG-20010904/DTD/svg10.dtd">
<svg version="1.0" xmlns="http://www.w3.org/2000/svg"
 width="232.000000pt" height="232.000000pt" viewBox="0 0 232.000000 232.000000"
 preserveAspectRatio="xMidYMid meet">
<metadata>
Created by potrace 1.14, written by Peter Selinger 2001-2017
</metadata>
<g transform="translate(0.000000,232.000000) scale(0.100000,-0.100000)"
fill="#000000" stroke="none">
<path d="M1048 2304 c-26 -8 -133 -64 -238 -124 -105 -61 -205 -119 -223 -129
-17 -10 -77 -45 -132 -76 -55 -32 -120 -70 -145 -84 -94 -53 -175 -163 -198
-266 -4 -22 -8 -238 -7 -480 2 -393 4 -445 19 -489 30 -84 68 -136 136 -188
30 -22 280 -170 440 -260 25 -14 104 -59 175 -100 72 -41 146 -80 165 -86 89
-28 205 -19 289 22 100 48 730 418 758 445 45 42 88 109 108 166 16 45 18 96
20 490 2 462 0 488 -45 579 -43 90 -112 144 -365 286 -27 16 -124 72 -215 125
-91 53 -203 115 -249 137 -75 37 -92 42 -165 44 -48 1 -100 -4 -128 -12z"/>
</g>
</svg>
