<svg width="344" height="71" viewBox="0 0 344 71" fill="none" xmlns="http://www.w3.org/2000/svg">
<path d="M0.428467 43.4849C0.428467 35.4097 6.34875 31.3721 18.1893 31.3721C20.9677 31.3721 23.7461 31.6301 26.5245 32.1461V29.0889C26.5245 25.4511 23.8889 23.6323 18.6177 23.6323C14.1516 23.6323 9.19205 24.2772 3.73916 25.5673V17.4404C9.19205 16.1504 14.1516 15.5054 18.6177 15.5054C30.7699 15.5054 36.8461 19.9688 36.8461 28.8953V56.1395H30.8479L27.1867 52.5019C23.6293 54.9269 19.7084 56.1395 15.4239 56.1395C5.42696 56.1395 0.428467 51.9213 0.428467 43.4849ZM26.5245 39.1119C23.9279 38.5959 21.1495 38.3379 18.1893 38.3379C13.2298 38.3379 10.75 40.0149 10.75 43.3688C10.75 46.9807 12.8273 48.7867 16.9819 48.7867C20.4094 48.7867 23.5903 47.7289 26.5245 45.6134V39.1119ZM56.9438 0.799782V56.1395H46.6223V0.799782H56.9438ZM77.0417 45.5359C79.6124 46.9292 82.3777 47.6257 85.3378 47.6257C91.4916 47.6257 94.5685 43.3301 94.5685 34.7389C94.5685 27.4377 91.1675 23.7871 84.3639 23.7871C81.43 23.7871 78.9892 23.9676 77.0417 24.3289V45.5359ZM66.7202 17.1695C72.147 16.0601 77.8856 15.5054 83.936 15.5054C97.8273 15.5054 104.774 21.9424 104.774 34.8163C104.774 49.0318 98.3076 56.1395 85.3768 56.1395C82.6244 56.1395 79.8461 55.4946 77.0417 54.2045V70.8452H66.7202V17.1695ZM112.603 56.1395V0.799782H122.924V20.6911C126.143 17.234 130.26 15.5054 135.271 15.5054C144.956 15.5054 149.799 20.5106 149.799 30.5208V56.1395H139.477V30.5208C139.477 26.0316 137.231 23.7871 132.739 23.7871C129.39 23.7871 126.118 25.1158 122.924 27.7731V56.1395H112.603ZM157.628 43.4849C157.628 35.4097 163.548 31.3721 175.389 31.3721C178.167 31.3721 180.946 31.6301 183.723 32.1461V29.0889C183.723 25.4511 181.089 23.6323 175.817 23.6323C171.351 23.6323 166.391 24.2772 160.939 25.5673V17.4404C166.391 16.1504 171.351 15.5054 175.817 15.5054C187.969 15.5054 194.045 19.9688 194.045 28.8953V56.1395H188.047L184.386 52.5019C180.829 54.9269 176.907 56.1395 172.623 56.1395C162.626 56.1395 157.628 51.9213 157.628 43.4849ZM183.723 39.1119C181.127 38.5959 178.349 38.3379 175.389 38.3379C170.429 38.3379 167.949 40.0149 167.949 43.3688C167.949 46.9807 170.027 48.7867 174.181 48.7867C177.609 48.7867 180.789 47.7289 183.723 45.6134V39.1119ZM234.007 54.9786C230.631 55.7525 227.126 56.1395 223.491 56.1395C208.95 56.1395 201.68 49.1092 201.68 35.0485C201.68 22.0198 208.95 15.5054 223.491 15.5054C227.126 15.5054 230.631 15.8924 234.007 16.6664V24.7932C230.631 24.0193 227.386 23.6323 224.27 23.6323C216.09 23.6323 212.001 27.4377 212.001 35.0485C212.001 43.6913 216.09 48.0127 224.27 48.0127C227.386 48.0127 230.631 47.6257 234.007 46.8517V54.9786ZM238.876 43.4849C238.876 35.4097 244.796 31.3721 256.637 31.3721C259.415 31.3721 262.194 31.6301 264.972 32.1461V29.0889C264.972 25.4511 262.337 23.6323 257.065 23.6323C252.599 23.6323 247.639 24.2772 242.187 25.5673V17.4404C247.639 16.1504 252.599 15.5054 257.065 15.5054C269.217 15.5054 275.293 19.9688 275.293 28.8953V56.1395H269.296L265.634 52.5019C262.077 54.9269 258.156 56.1395 253.871 56.1395C243.874 56.1395 238.876 51.9213 238.876 43.4849ZM264.972 39.1119C262.376 38.5959 259.597 38.3379 256.637 38.3379C251.678 38.3379 249.197 40.0149 249.197 43.3688C249.197 46.9807 251.275 48.7867 255.429 48.7867C258.857 48.7867 262.037 47.7289 264.972 45.6134V39.1119ZM285.07 54.2045V45.6908C289.614 47.4967 294.859 48.3997 300.806 48.3997C305.245 48.3997 307.465 46.9807 307.465 44.1428C307.465 41.4339 305.972 40.0794 302.987 40.0794H295.586C287.277 40.0794 283.122 36.016 283.122 27.8891C283.122 19.3754 289.185 15.1185 301.312 15.1185C306.453 15.1185 311.296 15.8924 315.839 17.4404V25.9542C311.296 24.1483 306.362 23.2452 301.039 23.2452C295.456 23.2452 292.665 24.6642 292.665 27.5022C292.665 30.2112 294.288 31.5656 297.533 31.5656H304.155C313.243 31.5656 317.787 35.629 317.787 43.7558C317.787 52.2696 311.996 56.5266 300.416 56.5266C294.729 56.5266 289.614 55.7525 285.07 54.2045ZM324.448 8.9266H332.081L333.639 15.5054H343.922V23.6323H334.769V42.3239C334.769 46.1165 336.418 48.0127 339.716 48.0127H343.922V56.1395H334.73C327.875 56.1395 324.448 52.4889 324.448 45.1877V8.9266Z" fill="#6640E9"/>
</svg>
